<?xml version="1.0" encoding="UTF-8" standalone="no"?>
<svg xmlns="http://www.w3.org/2000/svg" xmlns:xlink="http://www.w3.org/1999/xlink" width="600" height="175pt">
  <defs>
    <linearGradient id="d">
      <stop offset="0" stop-color="#fde2e2"/>
      <stop offset="1" stop-color="#fde2e2" stop-opacity="0"/>
    </linearGradient>
    <linearGradient id="e">
      <stop offset="0" stop-color="#e5e5e5"/>
      <stop offset="1" stop-color="#e5e5e5" stop-opacity="0"/>
    </linearGradient>
    <linearGradient id="a">
      <stop offset="0" stop-color="#c80000"/>
      <stop offset="1" stop-color="#c80000" stop-opacity="0"/>
    </linearGradient>
    <linearGradient id="c">
      <stop offset="0" stop-color="#fff"/>
      <stop offset="1" stop-color="#fff" stop-opacity=".78378379"/>
    </linearGradient>
    <linearGradient id="b">
      <stop offset="0" stop-color="#fff"/>
      <stop offset="1" stop-color="#fff" stop-opacity=".88288289"/>
    </linearGradient>
    <linearGradient xlink:href="#a" id="h" x1="754.19787" x2="826.89126" y1="678.49248" y2="678.49248" gradientTransform="scale(1.42354 .70247)" gradientUnits="userSpaceOnUse"/>
    <linearGradient xlink:href="#b" id="j" x1="808.65209" x2="868.91012" y1="405.6494" y2="405.6494" gradientTransform="matrix(1.14014 0 0 .87709 -.85525 -.427626)" gradientUnits="userSpaceOnUse"/>
    <linearGradient xlink:href="#b" id="k" x1="808.65209" x2="868.91012" y1="405.6494" y2="405.6494" gradientTransform="matrix(1.14014 0 0 .87709 -.85525 -.427626)" gradientUnits="userSpaceOnUse"/>
    <linearGradient xlink:href="#c" id="l" x1="544.7981" x2="497.10864" y1="718.09961" y2="724.06897" gradientTransform="scale(2.06926 .48327)" gradientUnits="userSpaceOnUse"/>
    <linearGradient xlink:href="#b" id="m" x1="793.42322" x2="793.42322" y1="416.07425" y2="449.52493" gradientTransform="scale(1.14014 .87709)" gradientUnits="userSpaceOnUse"/>
    <linearGradient xlink:href="#b" id="p" x1="808.65209" x2="868.91012" y1="405.6494" y2="405.6494" gradientTransform="matrix(1.14014 0 0 .87709 100.3978 -171.9896)" gradientUnits="userSpaceOnUse"/>
    <linearGradient xlink:href="#a" id="q" x1="754.19787" x2="826.89126" y1="678.49248" y2="678.49248" gradientTransform="scale(1.42354 .70247)" gradientUnits="userSpaceOnUse"/>
    <linearGradient xlink:href="#a" id="r" x1="754.19787" x2="826.89126" y1="678.49248" y2="678.49248" gradientTransform="matrix(1.37823 0 0 .4159 -1413.274 727.2758)" gradientUnits="userSpaceOnUse"/>
    <linearGradient xlink:href="#a" id="s" x1="754.19787" x2="826.89126" y1="678.49248" y2="678.49248" gradientTransform="scale(1.42354 .70247)" gradientUnits="userSpaceOnUse"/>
    <linearGradient xlink:href="#a" id="t" x1="754.19787" x2="826.89126" y1="678.49248" y2="678.49248" gradientTransform="matrix(.95347 0 0 .28772 -1125.822 639.5058)" gradientUnits="userSpaceOnUse"/>
    <linearGradient xlink:href="#a" id="u" x1="754.19787" x2="826.89126" y1="678.49248" y2="678.49248" gradientTransform="scale(1.42354 .70247)" gradientUnits="userSpaceOnUse"/>
    <linearGradient xlink:href="#b" id="g" x1="808.65209" x2="868.91012" y1="405.6494" y2="405.6494" gradientTransform="matrix(1.14014 0 0 .87709 -.85525 -.427626)" gradientUnits="userSpaceOnUse"/>
    <linearGradient xlink:href="#d" id="i" x1="939.14911" x2="960.72424" y1="508.44946" y2="508.81094" gradientTransform="scale(1.25618 .79607)" gradientUnits="userSpaceOnUse"/>
    <linearGradient xlink:href="#a" id="n" x1="754.19787" x2="826.89126" y1="678.49248" y2="678.49248" gradientTransform="scale(1.42354 .70247)" gradientUnits="userSpaceOnUse"/>
    <linearGradient xlink:href="#e" id="o" x1="805.19714" x2="804.87048" y1="360.75806" y2="434.65924" gradientTransform="scale(1.12308 .89041)" gradientUnits="userSpaceOnUse"/>
    <linearGradient xlink:href="#c" id="f" x1="544.7981" x2="497.10864" y1="718.09961" y2="724.06897" gradientTransform="scale(2.06926 .48327)" gradientUnits="userSpaceOnUse"/>
  </defs>
  <g transform="translate(-812.1277 -306.6458)">
    <path fill-rule="evenodd" stroke="#000" stroke-width=".25pt" d="M825.87238 496.09351c3.3883 9.93512 10.9565 19.9037 21.70667 22.00817h29.52241c4.94235-2.07889 11.36875-2.62567 13.60465-8.40029 1.5192-5.27226.2824-10.98245.68039-16.44226 0-13.94032-.00002-27.88064-.00003-41.82096-6.3489-11.74548-12.69779-23.49097-19.04669-35.23645-8.0186-.58757-17.2999-7.21533-24.47121-3.74981l-22.19328 17.08251c-1.30197 8.82371-4.45704 17.53437-4.53441 26.44.81813 13.09383 2.10128 26.14786 4.55857 39.04655l.17293 1.07254zm183.89582 12.15884c9.3295 18.01431 17.8603 12.35984 47.6483 12.62234 24.123-1.35999 33.3373-18.7475 31.9198-38.22214.7839-17.86888.5701-36.29643-8.4551-52.23726-6.0837-14.45851-12.1674-28.91701-18.251-43.37553-21.9978 2.58134-43.9956 5.16276-65.99342 7.74415-1.90796 21.54891-3.81592 43.09781-5.72388 64.64672 11.5664 13.38625 9.3969 32.27312 17.0673 46.54192l1.788 2.2798z"/>
    <path fill="#424348" fill-rule="evenodd" stroke="#000" stroke-width=".25pt" d="M878.4474 364.62543c-11.79195.134-25.70794.268-37.49989.40201-.33633-2.83146-.77273-5.67111-.59188-8.53051-1.04547-1.45095-3.60429-1.06627-5.27437-.87622-1.9594.39555-3.97203.66773-5.7087 1.74337-2.16611.2964-1.17403 2.60455-1.39529 4.08945.05122 2.17067-.00231 4.37857.32644 6.51918.86463 2.40173 1.72925 4.80345 2.59387 7.20518 1.47051 1.68749 3.6352.81021 5.50333.45893 1.85142-.39846 4.87575-1.05194 4.24515-3.52416.31327-1.2062 2.76852-.32641 3.97708-.65607 8.65638-.20998 19.64091-.3299 28.2981-.49968 2.25294-1.77728 3.64412-4.19762 5.52616-6.33148z"/>
    <path fill="none" stroke="#000" stroke-width=".25pt" d="m840.29506 365.08648.0764 1.75733 33.16007-.61125s.45843.15281.76405-.22922c.30563-.38202 1.37531-1.29889 1.37531-1.29889l-2.21577-.07641-32.62522.22922-.53484.22922zm-1.83064-7.74883c-2.17366.22622-4.43599.05362-6.50956.86364-.79905.24281-1.61685.45118-2.45418.49482-.53376.26267-1.25785-.19496-1.24156-.79176.6437-.51753 1.7412-.80323 2.45153-1.17612 1.68709-.58763 3.44926-.88859 5.33029-1.11654 1.29659-.06383 2.30357-.16462 3.53086.31933.43135.15237.85634.67225.60524 1.1332-.27962.41416-.84237.25273-1.26062.22424-.15175-.00934-.30752-.00252-.452.04919z"/>
    <path fill="#ef0000" fill-rule="evenodd" stroke="#000" stroke-width=".25pt" d="M1061.309 506.8884c31.1681-1.09832 62.4171-1.02756 93.408-4.80374 19.425-.16104 38.2527-6.5454 57.5843-8.38173 33.9046-5.2004 68.186-7.93097 102.3308-10.83324 18.3468-.77514 36.9992 1.83828 55.0769-1.92148-.2694-14.43711-2.0208-28.81873-2.8822-43.23367-18.9779-10.68461-30.486-30.26512-40.3515-48.99811-6.0542-4.6484-12.2404-10.61603-19.4023-12.74488-24.5489-7.29708-51.0368-9.92761-76.6724-14.15606-4.5251-7.17238-14.5778-7.03952-21.347-11.56246-27.7487-12.24201-54.4561-27.42007-83.7214-35.74799-36.5052-4.6041-73.5078-3.8103-110.2467-3.28294-32.01917 1.50545-65.48922 2.63854-93.64805 19.90383-24.35917 11.27365-42.59869 31.21877-59.56069 51.36899-10.09758 3.59104-18.85871 10.55825-28.26488 15.82899-2.47973 10.63233-3.31589 21.95496-9.84769 30.9841-5.11004 12.16979-6.30055 25.79817-7.26032 38.83129.4437 8.10775.96948 16.21335.77524 24.33787 8.15733 6.50786 11.46462 5.54759 8.52282-5.03507-2.31645-18.81333-.43702-38.37302 4.85903-56.47639 4.76388-18.80727 24.42106-7.9642 27.21135 5.40706 7.08307 22.67294 6.01093 46.94965 4.85733 70.36953 1.63574 3.45369 12.99427-.22022 18.62319 1.10682h128.07587c-8.8188-23.52066-12.09569-49.20839-9.3222-74.15793 3.0844-13.21005 7.0077-28.17717 18.1348-36.66602 8.8985-5.12039 17.9659.60135 25.7743 5.14173 10.4251 12.66224 15.3046 28.41166 17.8114 44.36989 4.1069 19.85696 2.4786 40.44746-.518 60.35161z"/>
    <path fill-rule="evenodd" stroke="#000" stroke-width=".25pt" d="m863.85851 385.11377 13.07264-13.07264 17.68651-17.68651 17.68651-14.6106 12.30366-6.92081 8.45877-3.84489 12.30366-3.8449 9.22774-2.30693 10.76571-.76898c2.56326.51265 8.31323.88077 15.37957 6.92081l7.68979 9.22774 8.45877 11.53468 8.45876 13.84162 2.3069 8.45877-.7689 9.53191-3.1257 1.07885-6.10209 1.6929-69.20809 2.30694h-16.91753l-9.22774-.76898-38.44894-.76898zm319.89519 29.22119c-7.9078-6.06749-14.5509-14.48431-24.5064-17.2909-9.9179-3.02478-20.3568-3.45182-30.5809-4.74443-11.616-.83804-23.4907-.31958-34.7186 2.96614-4.2198 2.07483-4.1157 7.46184-4.0179 11.50996.0223 4.57032.0095 9.14071.0085 13.71106 10.0763-1.00741 20.6358-1.00268 30.7207-1.88464 18.4526-.80891 36.423-2.38161 54.8483-3.61849 2.7489-.21407 5.4979-.42991 8.2463-.6487zm121.4986-6.15183 1.538-18.45549 10.7657-6.15183 9.9967 4.61387 8.4588 14.6106c.058 1.90064-1.4316 3.33703-3.0759 3.84489h-8.4588l-19.2245 1.53796z"/>
    <path fill="url(#f)" fill-rule="evenodd" d="M998.42981 385.11377c-2.10637 2.51917-4.24041 5.01647-6.15186 7.68979-.00983 1.50261 2.93629 5.05545.19361 4.66257-35.59797 1.24124-71.19241 2.67667-106.79258 3.7962-11.47519.0716-22.99675-.14258-34.44316.10635-4.77629 1.59781-9.49004 3.46052-14.56854 3.7781-1.23556-.21306-5.8202 1.68455-4.54622-.11007 1.3579-2.1399 2.6074-4.39299 5.10477-5.34317 7.59593-4.6036 15.19186-9.20719 22.78778-13.81079 19.41628.71707 38.83218 1.71447 58.2487 2.25619l80.1675-3.02517z" color="#000" display="block" style="marker:none"/>
    <path fill="#fabbbb" fill-rule="evenodd" d="m1106.8558 421.25577 9.9967 1.53796-2.3069 2.30693 2.3069 3.8449 6.1519 5.38285 9.2277 1.53796 109.964-6.92081-109.964 3.07591-5.3829-3.07591-4.6138-3.8449v-3.84489l-.769-1.53796-14.6106 1.53796z" color="#000" display="block" style="marker:none"/>
    <path fill-rule="evenodd" stroke="#000" stroke-width=".25pt" d="m1152.2255 462.78062 15.3796 13.84162 5.3829 4.61388 6.1518 1.53795h7.6898l8.4588-.76898 79.2048-6.9208 52.2905-5.38286 5.3829-1.53795 3.8449-3.07592 3.8449-4.61387 9.9967-15.37958-53.0595 4.61388-78.4359 6.9208-66.1322 6.15183zm-84.9826-20.79798c2.1079 6.99918 4.2158 13.99837 6.3238 20.99752.6765-2.45086 1.4754-4.86839 2.059-7.34449-1.0882-3.97293-4.021-7.00759-6.1962-10.39463-.7239-1.08945-1.4445-2.18129-2.1866-3.2584z"/>
    <path fill="#040001" fill-rule="evenodd" stroke="#000" stroke-width=".25pt" d="m994.55419 319.99741 47.35931-3.24379 39.5742-1.29751 25.9503.64875 20.7602.64876 18.1652 8.43385 15.5702 6.48757 16.2189 7.78509 11.6776 7.78508 9.0826 4.5413 7.7851 5.19006h-51.9006l-45.413 1.94628-40.2229 4.5413-20.1115 1.29751h-15.5702l-7.1363-3.89254-9.0826-12.32639-22.70651-28.54532z"/>
    <path fill="none" stroke="#000" stroke-width=".25pt" d="M1190.4789 400.44331z"/>
    <path fill-rule="evenodd" stroke="#000" stroke-width=".25pt" d="M1194.3715 396.55078c18.0473-1.77915 36.094-3.8398 54.2453-4.12521 14.5636-.61651 29.1369-1.21396 43.7169-1.06485 3.5944 4.44667 1.8272 11.10391-1.5805 15.09496-3.9854 3.14912-9.3388 1.59127-13.9715 2.36316-22.5622 1.007-45.1461 1.47542-67.7018 2.63697-4.3701-.24289-9.3509.03718-12.0114-4.23792-2.1519-2.89724-8.473-6.16284-6.5106-9.93853 1.1808-.59661 2.5381-.53767 3.8136-.72858z"/>
    <path fill="#fabbbb" fill-rule="evenodd" d="M1285.1975 417.311h14.2726c4.4615 2.05201 8.933 4.10023 13.5532 5.77482 5.379.34966 10.7697-.24401 16.0666-1.15616 2.2738-.84593 5.1543-2.16804 5.4877-4.88032.3064-2.37759-1.153-4.45913-2.5967-6.18437-1.0735-2.0224-3.0331-3.83896-5.4754-3.02906-6.6367.51935-13.2648 1.14221-19.8991 1.69 1.4531 2.48052-.8447 6.13077-3.7251 5.85046-2.3804.01463-4.761-.03449-7.1319.22315-3.4366.18597-6.9824.19625-10.1919 1.60445l-.36.10703z" color="#000" display="block" style="marker:none"/>
    <path fill="url(#g)" fill-rule="evenodd" d="M1347.4781 438.07123c2.1626-.43246 4.3251-.86501 6.4876-1.29752.6488-.86499 1.2975-1.73004 1.9463-2.59503-1.167-2.46099-2.5452-4.81319-3.9225-7.16038-2.1526-1.72194-4.3051-3.44397-6.4576-5.16601.4134 2.09012 1.0296 4.14518 1.2999 6.26023-.0201 2.32377-.0553 4.66103.3134 6.96318.111.9985.2216 1.99715.3329 2.99553z" color="#000" display="block" style="marker:none"/>
    <path fill="#040001" fill-rule="evenodd" stroke="#000" stroke-width=".32229605" d="m987.03279 379.68308 3.63904-25.95029-7.27807-11.67763-6.06505-6.48758-3.03253-3.24378-5.45856-2.59503h-6.06505l-5.92488.28034-13.94963 2.59503-8.40215 3.11974-3.45032 8.13738-4.29407 12.87095-2.47185 8.75016-1.72787 9.37907-.28034 6.62774 32.01004.78893h18.19516l14.55613-2.59503z"/>
    <path fill="none" stroke="#000" stroke-width=".25pt" d="m957.62092 329.62457-8.83079.84103-8.97096 1.82222-6.30771 1.9624-6.58805 15.41884-4.06496 14.85816-2.10257 10.51284-.42052 6.86839 1.12137-.14017.9812-8.83079 1.68206-8.12993 2.52308-9.81199 2.52308-6.72822 3.08377-7.28891 1.82223-5.46668 18.64278-5.18634 4.90599-.70085z"/>
    <path fill-rule="evenodd" stroke="#000" stroke-width=".25pt" d="m927.40293 338.49863-5.80499 11.78071-3.4147 10.92704-4.43911 13.65879-1.70735 5.46352-23.73215-.34147-11.09777-.34147 8.36601-9.04895 9.56116-9.21969 11.09777-8.70748 7.68307-6.14646 5.63425-3.9269 7.85381-4.09764z"/>
    <path fill="none" stroke="#000" stroke-width=".25pt" d="m998.24534 381.52695-17.62626 1.69019-15.45316.24146-32.59651 1.20727h-44.18638l-18.10918-1.20727-2.89746-.48292 1.69018-1.20727 15.21171.48291 29.9405 1.20728h21.00664l15.93607-.96583 17.38481-.96582h12.55569s8.45095-1.44873 9.41677-1.44873c.96582 0 5.55348-.48291 5.55348-.48291l2.1731 1.93164z"/>
    <path fill="#fff" fill-opacity=".48679241" fill-rule="evenodd" d="M975.70343 459.23343c-5.66289 3.52797-12.64842 2.51113-18.97628 3.32758-18.0845 1.21506-36.17556 2.81084-54.25956 3.73695-5.27424-.69732-11.03372-1.94191-14.4048-6.47429-5.02569-4.84971-7.13475-11.62198-10.51274-17.55302-2.60184-5.00956-5.21612-10.01282-7.77008-15.04705 4.3089 3.83229 6.8107 9.06851 9.00547 14.28034 3.09161 6.14306 6.96317 11.89138 10.98056 17.43672 4.1607 4.14397 10.0298 6.55334 15.93571 6.03298 20.47433-.93062 40.85301-3.55646 61.32104-4.51709 2.9492.13043 5.7896-.81899 8.68068-1.22312z"/>
    <path fill-rule="evenodd" stroke="#000" stroke-width=".25pt" d="M887.18066 505.53342c1.36802-.17822 3.48637.35954 4.37685-.27436l-1.63332-34.84317c-.9373.43742-2.77275-.04772-2.89738 1.22425-.48054 2.26885-1.14396 4.51557-1.49048 6.80259-.00753 4.18237-.07513 8.36953.27444 12.54168.23857 3.18497.31648 6.37682.27282 9.56987-.11852 1.56723.61895 3.00876.96237 4.50767l.06735.23574.06735.23573zm7.68196-35.11754h5.48712l1.64613.54871.54872 6.58454 2.19484 27.43559-7.68196.54871-2.19485-35.11755z"/>
    <path fill="#fff" fill-opacity=".6" fill-rule="evenodd" d="M1332.7346 479.74399c2.3778-.54872 4.7555-1.0975 7.1333-1.64615 2.942-2.49385 6.023-5.10209 7.5444-8.7522 2.6802-5.21447 4.1793-10.92725 6.6533-16.23366.9563-2.24324 1.783-4.62721 3.3218-6.54345 1.1676-1.34146 4.3755-.6246 3.0377 1.46067-1.615 2.97325-3.0344 6.06146-4.0269 9.30483-1.6605 5.15047-2.9161 10.4962-5.4903 15.29267-2.3296 3.82451-6.3641 6.33913-10.6152 7.50317-2.5216.30342-5.0294-.43866-7.5581-.38588z"/>
    <path fill="url(#h)" fill-rule="evenodd" d="m1343.0773 479.81427 10.2062.15948 6.5384-.47842 4.7842-.79736 3.5084-.63789.7973-.95684-.1594-4.78418-1.2758-16.26621-.319-9.24941-.7973-4.46524v-1.75419l-3.1895 2.39208-2.711 1.7542 1.5947 2.07315-2.2326 2.87051-2.8705 5.74101-1.7542 5.74102-1.1163 5.10312-2.5516 4.78418-2.5516 3.82734-3.0299 3.18946-2.8705 1.75419z" color="#000" display="block" style="marker:none"/>
    <path fill="none" stroke="#000" stroke-width=".25pt" d="m1046.6433 382.53303-5.7214-2.03018-8.4899-2.39931-6.8288-2.953-6.6442-4.61406-6.8289-5.53688-3.5066-5.16774-6.4597-7.93619-5.35233-8.12074-18.27168-19.00993 7.19794 7.56706 5.35231 7.38249 6.45968 9.41269 6.64428 10.33549 3.5067 5.16775.5536 2.953 1.6611 2.953 2.7684 3.32212 4.0604 1.84562 5.3523 2.21475 5.1678 3.13756 2.5838 1.29194 16.7952.18456z"/>
    <path fill="none" stroke="#000" stroke-width=".25pt" d="m1028.3547 382.20845-11.6342.18765-9.3824-5.8171.1876-10.133 4.8789 7.69358 13.1353 5.62944 2.8148 2.43943zm148.215-23.78891-26.5196 1.6428-28.1624 2.34687-24.8768 2.81624-23.4686 1.87749-15.2547 1.87749-13.3771 1.8775h-8.4487l-3.2856-3.5203s-1.8775-2.11218-.9388-2.11218c.9388 0 11.969.70406 11.969.70406l19.0096-1.64281s16.8975-1.17343 18.0709-1.40812c1.1734-.23468 17.8362-3.05092 17.8362-3.05092l19.9483-.93875 14.7853-.93874s14.3159 0 15.4893-.23469c1.1734-.23469 10.5609-.23469 13.1425-.23469 2.5815 0 14.0812.93875 14.0812.93875z"/>
    <path fill="none" stroke="#000" stroke-width=".25pt" d="m1117.5057 391.71918-13.1658-5.45608-13.403-2.96526-10.3191-3.3211-14.3518-1.89777-12.81-1.54193-9.4888-1.77916s-4.6258-1.30472-5.2189-1.54194c-.593-.23722-2.135-1.66054-2.728-1.89776-.5931-.23723-3.7956-4.03276-3.7956-4.03276l.3559.35583"/>
    <path fill="#fff" fill-rule="evenodd" d="M1196.4375 358.4375c-15.3001.03493-30.6088.83341-45.7868 2.80203-3.0751.30289-6.1502.60473-9.2249.91114 2.2159 3.22582 6.19.42528 9.2052.55374 11.5287-.94017 23.111-1.71101 34.674-.92665 12.5267.31927 25.0203-.84914 37.5075-1.65276-3.2572-2.71977-7.6987-1.02961-11.5049-1.63244-4.9563-.0711-9.9134-.08991-14.8701-.05506z"/>
    <path fill="#eeeff6" fill-rule="evenodd" stroke="#000" stroke-width=".25pt" d="M1307.1172 407.17871c4.2385.29114 8.8019-1.44577 11.1836-5.08653 1.2572-2.24996 1.6702-5.03782 3.6867-6.80877 1.5786-1.67175 3.316-3.47943 3.66-5.85477-.2894-1.49556-1.8363-2.12158-2.8208-3.09419-1.4629-1.0072-3.4177-1.09183-4.723-2.35967-1.5737-.35209-2.6891 1.12371-4.0986 1.50045-2.3979 1.07877-4.9354 2.58702-5.9043 5.17426-1.6018 5.04158-.3369 10.41524-1.3935 15.53877-.027.36462.0721.79239.4099.99045z"/>
    <path fill="none" stroke="#000" stroke-width=".25pt" d="M1300.222 446.82986c-.3996-6.04453-.7993-12.08906-1.1989-18.1336-3.4755-2.31804-7.6086-.03222-11.3834-.48222-21.5368 1.43718-43.0459 3.48188-64.6356 3.9618-3.9915 1.12529-5.1099 6.19034-3.8405 9.70439.7888 4.11961.2395 8.50349 1.9447 12.43054 17.9485-.74993 35.7961-2.92123 53.7114-4.15575 8.1198-.69603 16.2399-1.39028 24.3618-2.06191.5816-.08813 1.162-.63002 1.0405-1.26325zm-294.6354-80.0565-7.96206-11.50083-9.73148-14.59722-6.63509-8.18328-5.52925-4.64457-7.74095-3.31755h-7.96211l-8.8468.88468-8.62563 2.43287-6.63509 1.76936-3.75989 1.32702-11.27967 5.75042-8.84679 5.75041-7.96212 5.97159-6.41392 4.86574-9.51031 8.84679-6.85627 6.6351-5.52924 5.52925-4.86574 5.52924-1.54819 1.76936.88468.22117 16.58774-17.03008 9.51031-9.06796 12.16434-9.51031 9.95265-6.85627 8.62562-4.86573 7.29861-3.31755 9.5103-3.09638 7.74095-1.76936 5.97159-1.10585h6.63509l6.41393 1.10585 5.30808 2.87521 5.08691 4.20223 4.20222 5.52924 4.64457 6.6351 4.86574 7.07744 4.64457 6.63509 3.3175 5.75042 1.9906 2.87521.8846-1.10585z"/>
    <path fill="#eeeff6" fill-rule="evenodd" stroke="#000" stroke-width=".25pt" d="M1092.1442 396.8504c7.1044-.48864 10.5533 1.21236 14.2447 3.83989 4.3791 5.57338 8.7581 11.14677 13.1372 16.72015l63.1784-3.05956-16.5973-15.30364c-12.8487-4.37439-31.8899-8.10816-51.3583-6.71702-10.3109.72375-16.351 1.02043-22.6047 4.52018z"/>
    <path fill="url(#i)" fill-rule="evenodd" d="M1183.8767 413.07941c1.2087-.52126 3.3399.9507 3.9069-.67826.1287-1.6124-1.5115-2.51656-1.9773-3.92677-1.3879-2.57075-3.0487-4.97935-4.708-7.37938-.4824-1.37334-2.7824-2.65206-1.5509-4.23162 1.3498-.99256 3.1365.01346 4.3706.77968 2.8912 1.95859 5.2385 4.5819 7.94 6.77421 2.7833 2.63813 4.9218 5.87372 7.681 8.5291 1.3478 1.00485 2.7929 1.9805 4.4638 2.33512.8823-1.6692-1.4468-2.57643-2.2615-3.6951-3.8953-2.85005-6.873-6.04201-9.8892-9.48422-2.6469-2.87123-5.4914-5.77446-9.1779-7.26753-1.962.31007-4.1664-.24955-5.906.95899-.9651 1.46693.4106 2.97382 1.0804 4.23818.8037 1.44627 1.8569 2.75454 2.4917 4.29279-.1955 1.80306-2.6439 1.75618-3.7508.81171-1.3587-.82437-2.4657-2.02147-3.9057-2.71882 1.4761 1.80507 3.2351 3.37647 4.5372 5.32106 1.9253 2.12562 4.5259 3.4525 6.6557 5.34086z"/>
    <path fill="#f9abab" fill-rule="evenodd" stroke="#f45151" stroke-width=".25pt" d="M1205.1486 415.10056c8.0829-.14106 16.1751.41136 24.251-.0765 3.4387-.42142 6.8727-.95715 10.2483-1.748-6.0425-.47701-12.1148-.44665-18.1614-.07051-4.9486.18025-9.901.01954-14.8515.07127-.6881.13433-2.2983-.27985-2.3572.22732.2901.53217.5807 1.0643.8708 1.59642z"/>
    <path fill="#eeeff6" fill-rule="evenodd" stroke="#000" stroke-width=".25pt" d="m1051.0689 439.47281-3.8214 5.5851 5.5851-.88186-.5879-2.35162-1.1758-2.35162zm2.9395 12.93391-2.9395.29395-2.3516 2.05767-1.1758 2.05767.2939 2.05767 1.7637 1.46976v2.35162l.294 2.64557-1.1758 2.35162-1.1758 1.46977.2939 2.64557 1.7637 1.46976 2.6456.29396h1.7637l.5879-2.93953v-1.76372l-2.0576-1.17581-.294-1.76371-.5879-4.70324.5879-2.35162 1.7637-1.17581v-3.52743l-1.7637-1.46977 1.7637-.29395z"/>
    <path fill="#eeeff6" fill-rule="evenodd" stroke="#000" stroke-width=".25pt" d="M1037.976 515.34125c8.1317-7.12202 14.3217-16.80667 15.8429-27.63728 4.1723-19.71434 1.1381-40.10804-3.6854-59.40854-2.5071-8.49831-10.0393-16.29681-19.3923-16.05749-6.506-.10057-12.1753 4.25186-15.3654 9.66532-7.5341 11.34564-9.9794 25.26863-10.3485 38.66508-.04 10.6415.7039 21.37839 3.1398 31.75729 2.5446 9.73994 7.847 19.81511 17.3523 24.24374 4.109 1.46915 8.5087.08089 12.4566-1.22812z"/>
    <path fill="none" stroke="#000" stroke-width=".25pt" d="m1002.9382 504.50804-4.451-11.93682-3.23711-9.50898-2.2255-7.08116-3.03479-11.7345h-23.6713l-26.30146 2.02319-12.13913.20232-11.32986 1.21391h-20.4342l-5.66493.60696-4.2487 2.83246-1.41623 7.28348.40464 7.28348.60695 7.68812v5.66493l.20232 6.06956 1.82087 1.82087 10.11595.20232 48.35421-.80927h25.28986s12.9484-.20232 13.75768-.20232h8.29507l9.30666-1.61855z"/>
    <path fill="none" stroke="#000" stroke-width=".25pt" d="M884.58167 476.18338c-1.27797 4.78412-1.94963 9.87621-.81709 14.75934.51367 3.9759.02622 7.98658.22141 11.97637-.25663 1.56968-2.15124 1.92893-3.46643 1.61572-4.73164-1.42095-9.70718-.44262-14.55124-.63372-.67014-2.23304-1.65248-4.44668-1.59688-6.82325-.26402 2.83171-.50155 5.66755-.60056 8.51051.44593 1.5064 2.24463 1.63312 3.55613 1.59209 6.08965.2098 7.89316-.95454 18.27713.15881 1.56741.48275 1.18319-.97445.36165-1.60482-.97903-1.53901-.86064-3.418-.7731-5.15528.01244-5.07888-.26378-10.15713-.77839-15.20789-.06268-3.06413.18513-6.12411.16737-9.18788zm29.04511-87.75561-6.64953 7.67253-2.04601 4.09202h-.5115m97.33286 12.97128c.0473-7.51918-.1533-15.04411.2475-22.55694.172-1.32404 1.4185-2.29294 2.0332-3.47067.5238-.91618 1.7671-2.2956 1.8405-2.92175-.9529.08783-2.5852-.56411-2.8255.82704-.8791 2.39764-1.7582 4.79529-2.6374 7.19291v21.73441c.4501.33769 1.6669 1.6366 1.3417.22219v-1.02719z"/>
    <path fill="#fcc8c8" fill-rule="evenodd" d="M868.12061 433.48352c-2.86046-4.37038-5.75682-8.74159-9.15238-12.71718-1.40323-2.25173-3.55514-3.97436-5.89856-5.1561-1.13223-.78767-1.61134.39277-.55304.99642 1.17409 1.02735 2.2742 2.13691 3.32182 3.29226-2.46475-1.51074-4.64513-3.44329-7.08855-4.9944-1.85998-1.24838-4.04734-2.31692-6.34456-1.99197-1.73571.01738-2.52455.1086-5.04743 1.43711-.40457.77052-2.87449 1.77937-2.21594.23353 1.65924-1.24468 3.74598-1.75435 5.4573-2.93416 2.65427-1.21926 5.63412-1.09296 8.47827-1.01835 3.35551-.20185 6.67171-.86357 10.01625-1.12681 1.98417-.41361 3.94379.53451 5.38751 1.83456 1.80985 1.14551 2.84431 3.03998 3.89325 4.826 1.23513 1.81552 2.63463 3.53219 3.63243 5.49845-2.85758-3.19075-5.35021-6.75855-8.73539-9.43595-1.67695-.80008-1.98461 1.50042-.49754 1.99163 1.51771 1.59814 3.09344 3.14731 4.49484 4.84752 1.91493 1.85114 3.68743 3.91894 4.69138 6.41694.29227.72546 1.67566 2.58883 1.06837 2.66427-2.36239-1.60323-4.70309-3.32932-6.34564-5.70734-1.63278-2.21546-3.39287-4.33041-5.03373-6.53817-1.1608-1.46621-.24495 1.60447.04013 2.24427.71882 2.2719 2.83043 3.60657 4.22206 5.43171 1.00306 1.18736 1.95272 2.55259 1.7695 4.18292.09592 1.91046.12801 3.83128.43965 5.72284z"/>
    <path fill="#bd0000" fill-rule="evenodd" d="m1129.8912 456.41518-12.646-2.57602-7.9622-3.04439-8.1964-4.2153-6.323-6.32297-4.2153-6.79132-6.7913-12.17756-2.8102-7.49388-3.2786-7.2597-3.2786-5.38622-2.1076-3.98113-.9368.23419 2.3419 4.2153 4.2153 8.89899 3.7469 8.89898 3.5128 7.02551 2.576 5.8546 3.7469 5.85459 3.0444 5.15204 3.747 3.51276 4.6836 3.27857 4.9179 2.34184 5.3862 1.63929 3.9811 1.4051 4.2154.93673 2.8102.46837 2.3418.46837 3.2786-.93674z"/>
    <path fill="#fefefe" fill-opacity=".73584908" fill-rule="evenodd" d="m1090.0799 396.69833-8.6648-.70256-6.7913-.46836h-2.8102l-1.1709 1.17092h-.9368v-3.27858l-.9367-3.74694-1.1709-2.8102-2.8102-2.57602-2.1077-.46837-4.6836-.93674-4.9179.23419-5.3862-.46837-2.3419-.93673-23.8867-9.36736-4.4495-3.74694-5.338-3.52239-1.8157-1.39546 7.1537-1.63929 5.7486-1.57182 4.5169 3.94257 4.4784 4.6644 3.7566 3.26893 9.8357 3.74694s9.1332 1.40511 10.0699 1.40511l10.7725 2.81021 5.3862 2.10765 6.0888 2.34183 5.6204 2.57603 4.2153 1.87347 6.0888 1.87347 1.8735 1.87347-.4684 1.63928-6.0888 2.57602 1.1709-.46836z" color="#000" display="block" style="marker:none"/>
    <path fill-rule="evenodd" stroke="#000" stroke-width=".25pt" d="M1328.9663 482.12863c-5.2283 8.81729-14.1267 15.79334-24.5289 16.89179-10.8274 1.78471-21.8496.87676-32.7512.7322-5.751-.93903-10.7288-4.38252-14.8714-8.32344-6.1773-1.09786-12.085 1.90363-18.2152 2.0549-9.1771 1.76452-18.5527.90594-27.8022 1.57834-3.3344.27531-11.4622.53289-12.1359.45976 17.5252-3.8196 35.6947-6.84028 53.639-8.05616 20.1303-2.25066 40.1999-5.94234 60.5366-5.36189 5.3764.00022 10.7528.05019 16.1292.0245z"/>
    <path fill="red" fill-rule="evenodd" d="m1176.8646 482.83072-4.5644-1.61097-2.685-.80549-3.3562-2.01371-2.6849-1.34247-2.4165-1.47672-1.3425-1.20823-1.6109-1.34247s-1.4767-1.34248-.8055-1.34248h2.6849l2.4165 2.41645 2.6849 2.14796 2.5507 1.61097 2.0138 1.34248 1.6109 1.20822 3.222 1.74522 2.2822.67124zm-41.2267-19.80188h1.0978l2.1954 2.3523 3.4501 4.07734 7.0569 6.58646 4.7046 4.5478 3.6069 2.97959 3.1364 2.03867 3.2933 2.19548 2.6659 1.88185 2.9796 2.03867 3.2932 1.88184 2.666 1.09775 2.0386.7841.3137.94092-.6273.47047-1.0977-.62729-2.3524-.62728-9.0955-5.3319-10.8207-7.84103-6.5864-6.27282-5.3319-5.17508-3.6069-3.92051-2.5091-2.50913-1.4114-1.72503.9409.15683z"/>
    <path fill="url(#j)" fill-rule="evenodd" d="m1331.5928 479.48958-27.5096 1.67997-25.8297 2.09998-32.7596 3.98995-43.4694 5.24993-12.5998.20999-7.9799.83999-3.57.42.63 2.30997 1.05 1.46998 5.2499-.21 9.2399-1.46998 10.7099-1.46998 49.9793-6.29992 22.2597-2.72996 10.2899-.83999 11.9698-.83999 11.5499-.83999 4.8299-.83999h9.4499l4.8299-.41999 1.68-2.30997z" color="#000" display="block" style="marker:none"/>
    <path fill="url(#k)" fill-rule="evenodd" d="M986.03275 379.04151c1.98497-8.0068 3.06932-16.78556 3.63904-25.95029-4.23838-6.48982-14.52375-21.59983-21.97861-23.71523-13.78024-1.82902-23.0574 1.87432-30.53333 5.70632l-3.45032 8.13738-4.29407 12.87095-2.47185 8.75016-1.72787 9.37907-.28034 6.62774 28.34606.78893h18.19516l14.55613-2.59503z"/>
    <path fill="url(#l)" fill-rule="evenodd" stroke="#000" stroke-width=".25pt" d="m994.55419 319.99741 47.35931-3.24379 39.5742-1.29751 25.9503.64875 20.7602.64876 18.1652 8.43385 15.5702 6.48757 16.2189 7.78509 11.6776 7.78508 9.0826 4.5413 7.7851 5.19006h-51.9006l-45.413 1.94628-40.2229 4.5413-20.1115 1.29751h-15.5702l-7.1363-3.89254-9.0826-12.32639-22.70651-28.54532z"/>
    <path fill="none" stroke="#000" stroke-width=".25pt" d="M1217.7267 356.97657h-12.3264l-23.3553-15.57017-19.4627-9.73136-20.7602-9.0826-11.0289-5.83882 9.7314 2.59503 9.6011 3.8101 24.2167 10.75765 19.3803 8.78751 14.9214 7.78509 9.0826 6.48757z"/>
    <path fill="#040001" fill-rule="evenodd" stroke="#000" stroke-width=".25pt" d="m1206.1517 356.78375-11.3005.10114c-14.1071-12.29531-40.5913-28.76763-70.9009-40.39605l3.9259.50224 10.5049 4.75993 23.5359 10.12742 17.4792 8.17634 15.2454 9.22996 11.5101 7.49902z"/>
    <path fill="url(#m)" fill-rule="evenodd" d="m927.40293 338.49863-5.80499 11.78071-3.4147 10.92704-4.43911 13.65879-1.70735 5.46352-23.73215-.34147-11.09777-.34147 8.36601-9.04895 9.56116-9.21969 11.09777-8.70748 7.68307-6.14646 5.63425-3.9269 7.85381-4.09764z" color="#000" display="block" style="marker:none"/>
    <path fill="#fff" fill-opacity=".72830188" fill-rule="evenodd" d="m1081.1025 497.47007-3.7595-1.09438-1.4652-.78048-1.0228-1.45196-.4931-1.37329-.8654-1.25879h-5.2712l-1.8882.3147s0 1.65215.3934 1.8095c.3934.15735 1.4161.70807 1.8095 1.02277.3934.31469 2.6749 1.73083 2.6749 1.73083s2.2971.66597 2.7692.90199c.472.23603 5.2332.73609 7.1184.17911z"/>
    <path fill-rule="evenodd" stroke="#000" stroke-width=".25pt" d="M1340.8446 476.03317c1.5895-.74805 3.1791-1.49595 4.7686-2.24399 1.5009-3.12302 3.3814-6.03992 5.2015-8.98166 1.0675-2.94511 1.3558-6.22518 3.198-8.84786 1.284-2.84088 1.5936-6.13726 3.5789-8.64111 1.6692-.84098-.5751-3.53609-1.741-2.06169-1.2718 1.06727-2.8811 1.53384-4.2637 2.40637-1.5232 1.00346-2.1754 2.7816-3.0971 4.27571-1.6996 3.20214-3.1606 6.52593-4.8554 9.72954-1.8033 3.99158-3.4908 8.14821-3.9691 12.52934.0983.73909.4743 1.50736 1.1793 1.83535z"/>
    <path fill="url(#n)" fill-rule="evenodd" d="M1176.9594 497.08615c-17.0524 2.06567-34.0974 4.87388-51.3305 4.58371-11.617.20349-23.4213.87563-34.8668-1.50696-4.9268-1.30621-9.7656-2.91613-14.6655-4.31619-3.8986-4.69055-1.7738-11.05439-2.3069-16.55411v-28.04666c4.3347 3.89714 8.5683 9.05689 14.8779 9.28978 12.1437 2.68197 24.6267 2.89931 36.9829 3.76683 4.3095-1.59131 10.6376-1.84285 13.0328 2.8946 10.6487 11.93196 22.9611 22.70613 37.5581 29.51561l.718.37339z"/>
    <path fill="url(#o)" fill-rule="evenodd" stroke="#000" stroke-width=".25pt" d="M957.96875 322.71875c-7.582.87678-14.89271 3.39613-22.17261 5.59242-6.9879 3.08957-13.65269 6.88446-20.34613 10.54106-5.73557 4.1066-11.52887 8.14029-16.68986 12.97255-8.14218 6.64358-15.2392 14.41226-22.71516 21.77022-2.64 2.83291-5.27999 5.66583-7.91999 8.49875 1.99241-.5051 4.56803.15811 5.79388-1.88263 7.32744-7.47526 14.5207-15.08921 22.41324-21.98036 4.66727-4.14728 8.95442-8.77121 14.3355-12.02342 4.49369-3.20695 9.0455-6.3189 14.03225-8.71972 2.02119-1.42699 5.11592-1.62746 2.32416 1.4993-6.17211 13.1738-10.678 27.06282-14.39903 41.10683 2.51042.0625 5.02083.125 7.53125.1875 2.50651-15.95368 7.44649-31.42444 13.46875-46.375 7.19917-2.84321 14.41115-5.93852 22.22845-6.51455 6.6642-.80347 14.58828-.54563 19.30461 4.91153 5.49447 5.7174 11.00575 11.63534 14.89178 18.58757 2.29663 6.28345-.95359 13.11675-1.01765 19.62972-.18579 3.34442-3.53397 10.14105 2.68697 8.2099 4.34713-.18181 8.72944-.17297 13.09334-.32417 2.5353-6.05653-.8364-12.53246-2.3437-18.4375-7.70305-10.89019-14.21848-22.92632-24.24973-31.92371-4.2648-2.91093-9.12612-5.91127-14.52605-5.37662-1.9074-.06624-3.81906-.07823-5.72427.05033z"/>
    <path fill-rule="evenodd" stroke="#000" stroke-width=".25pt" d="M996.51135 367.96756c-3.94221.37578-7.87987 1.00182-11.82539 1.21641-1.7806-.48702-4.0445.09572-5.43521-1.26018-1.16391-1.19597-2.4948-2.20654-4.07517-2.7762-2.32717-1.22588-4.95802-1.58161-7.55552-1.63851-4.45236-.25271-9.12974.61655-12.70485 3.42735-3.11035 2.19407-5.00585 6.63799-3.2803 10.24268 1.17064 2.30963 3.81559 3.14249 5.88419 4.41989 3.49013.29257 7.0218.53115 10.51117.1571 1.81887-.23224 3.55011-.81651 5.20396-1.59645 3.27174-1.40307 5.97993-3.9371 7.81604-6.96951 1.12565-1.62386 3.70217-.42309 5.46823-.77781 2.59572.02755 5.19354-.01548 7.7738-.32362.27616 1.72498 2.1574 3.8576 3.5067 1.73111.29992-1.50909 1.63271-3.34108-.03939-4.42572-.41609-.47551-.83218-.95103-1.24826-1.42654z"/>
    <path fill="#c3c4cf" fill-rule="evenodd" d="M951.2254 373.28381c1.22958-.12467 2.50044-.29103 3.59071-.91546 1.50267-.00392 1.8168-1.73672 2.43111-2.7597 1.1468-1.22606 2.9701-1.0649 4.50559-1.19595 1.55851-.06466 3.18958-.17924 4.63995.51301.93761.43458 2.02417.96685 2.27239 2.0744.1202 1.25693 1.64553 2.60934 2.68705 1.33581.65844-1.00677 1.75012-1.87932 2.92118-.99287 1.11782.85992 2.9371-.03144 2.09447-1.489-.36193-.86382.31582-1.44772 1.13447-1.19278 1.12857.05548 1.60981-1.31322.40991-1.65857-1.68104-.9791-3.47751-1.77586-5.3225-2.38672-2.91252-.78969-5.96816-.78141-8.96144-.68262-4.0976.282-8.14735 2.20086-10.71715 5.44448-.72911.96604-1.38936 2.0351-1.53941 3.2601-.04878.21529-.09756.43058-.14633.64587z"/>
    <path fill="none" stroke="#000" stroke-width=".25pt" d="M862.04207 383.50296z"/>
    <path fill="#fcc8c8" fill-rule="evenodd" d="M879.51587 367.32349c8.93827-8.26282 16.96793-17.61569 27.28858-24.22892 9.54334-6.57669 19.45718-12.75331 30.51506-16.44532 11.78715-4.28522 24.74123-6.7617 37.15246-4.08868 6.44632 2.50793 10.51157 8.60957 14.99925 13.57837 6.21903 8.71603 11.91398 17.81519 18.17648 26.48051 3.3757.38445 5.786-.8389 8.6547-1.19089 1.7105-.99543 4.3786-1.11038 6.5629-3.1058-10.3429-13.10866-20.6858-26.21731-31.02869-39.32596 31.50369-1.63105 63.00789-3.56632 94.51139-5.0073 7.6482.20168 15.3506 1.67205 22.9163-.05826-9.2109-2.04599-18.7572-.9393-28.1255-1.50512-23.774-.58798-47.5494-.93113-71.3291-.48006-12.91864.32353-25.8134 1.71287-38.67919 2.85023-14.88163 1.92271-29.46228 6.23781-42.61236 13.55021-9.44498 4.37822-18.29673 9.79786-26.97428 15.52332-6.74953 4.87205-12.91959 10.62233-19.14556 16.14131-5.99093 7.29569-12.78195 13.97479-18.93653 21.05533-2.8284 5.28721.28362 1.79317 2.62675-.56428 4.47578-4.3929 8.95156-8.7858 13.42734-13.17869z"/>
    <path fill="none" stroke="#000" stroke-width=".25pt" d="m1007.8972 365.06323 11.523-2.74356c-7.1277-10.06974-14.4819-19.98347-21.30288-30.2665-3.03369-4.20166-6.22797-8.29729-9.75343-12.10029"/>
    <path fill="#bd0000" fill-rule="evenodd" d="M1348.7771 438.91214c-6.6396 1.78682-13.4558 2.73715-20.2198 3.91003-8.7583 1.39611-17.5991 2.24109-26.3648 3.56497-.8177-1.26635 1.8329-.93441 2.6222-1.15485 8.3503-1.1328 16.7598-1.91974 25.0162-3.65207 5.897-1.1 11.81-2.11153 17.7134-3.17611.4109.16937.8219.33867 1.2328.50803z" color="#000" display="block" style="marker:none"/>
    <path fill="#fefefe" fill-opacity=".73584906" fill-rule="evenodd" d="M1141.5 362.21875c-18.2524 1.74271-36.6538 2.2527-54.686 5.79718-9.1705 1.26853-18.7392.65048-27.6056 3.49878-.3742 4.35605 11.0225 2.81676 15.0416 4.98529 8.3158 1.86993 16.6462 3.63733 25.2006 3.82892 16.4607 1.01506 32.9885.42851 49.477.78103 21.849.36697 43.7197-.26008 65.5562.36518 18.8113 1.30923 37.6825 2.04413 56.4561 3.71456 7.2909 1.07219 14.5817 2.14437 21.8726 3.21656 2.4141 2.56171 4.8127 5.19977 6.5 8.3125-.2235-6.51141-6.0838-10.95024-11.2422-14.01276-4.7617-2.67544 2.4727-.03375 3.7487 1.70941 5.0927 3.2293 9.7644 8.21272 10.5248 14.3971 4.0821 1.38592 3.0508-4.13911 3.1875-6.64798.6068-2.61029 2.842-5.88797 5.7834-6.5413 5.1222-.58694 2.4713-3.00814-1.1641-3.17309-12.3352-3.02907-24.5613-6.75749-37.1086-8.77703-30.3976-2.1347-60.8139-4.36336-91.2648-5.332-17.7382.29255-35.4765.5851-53.2147.87765 14.3194-2.7158 28.8902-3.55148 43.4063-4.53125-13.5105.15625-27.0209.3125-40.5313.46875 3.3537-.33711 6.7107-.64668 10.0625-1v-1.9375z"/>
    <path fill="#d00000" fill-rule="evenodd" d="M1284.5934 381.3244c4.5804 2.23524 9.3447 4.73547 12.3309 9.02447 2.6267 3.07037 3.2438 7.51328 2.0797 11.31819-.4418 2.01267-1.0664 3.98036-1.4939 5.99642 1.3292.69849 2.738-.2069 4.1152-.13006 1.1629-1.21538.5748-3.01058.9712-4.48495.6281-4.63626-1.0819-9.4399-4.295-12.80493-3.3607-3.90281-7.7148-6.93784-12.4712-8.87897-.4053-.08553-.8274-.1139-1.2369-.04017z"/>
    <path fill="#ff2e25" fill-rule="evenodd" d="M870.62231 417.7616c4.10308 3.45849 9.11224 6.16064 11.56399 11.18149 3.828 5.79307 8.28512 11.16145 11.96222 17.03355 3.12191 3.20079 6.23075 6.39643 6.95131 10.96317 1.50577 3.82554 6.21174 4.38184 8.62782 7.19638-2.70857.51613-6.70524.41352-9.71212.11742-3.20801-.47616-8.17249-3.90571-11.05253-7.31621-3.53988-4.64298-5.61776-9.3291-8.51424-13.92371-3.85379-7.42682-8.40635-14.85424-9.4366-23.31143-.12233-.64838-.24999-1.29581-.38985-1.94066z"/>
    <path fill-rule="evenodd" stroke="#000" stroke-width=".25pt" d="M1170.9081 491.49534c.8489-4.5102 3.1745-5.7843.0665-8.62187-6.5069-5.70593-15.3908-13.8682-21.5936-19.9111l-10.3886.17838c2.5473 2.91908 10.0545 11.54574 12.8592 14.29858 3.1934 3.38908 15.2235 11.51351 19.0565 14.05601z"/>
    <path fill="#ff2e25" fill-rule="evenodd" stroke="#ff2e25" stroke-width=".25pt" d="m1218.967 455.97714-54.011 5.17471-17.4646.97025-11.6431.64684-26.8438-2.26393-8.7323-.97026-10.6728-2.58735-9.7026-6.14497-3.8811-4.52787-10.0259-16.8178-7.7621-14.87728s-7.7621-11.31967-8.4089-12.61335c-.6468-1.29368-4.5279-5.82155-4.5279-5.82155l-2.9108-3.55761-.6468-2.58735 1.2937-2.91077.6468-.64684 14.5539 1.29367 4.2044-1.29367 4.2045.97025 1.6171 4.85129 5.8215 11.64309 6.145 13.58361 4.8513 10.67284 7.762 13.26018 6.145 6.79181 7.7621 3.88103 9.0557 3.23419 8.7323 1.6171 4.8513.97025 6.4684 1.29368 9.7026 1.29368 15.5241-1.6171 14.5539-.97026 13.907-.64683 10.9962-1.29368 9.0558-.97026h5.4981l4.2045-.32342-.3235 1.29368z"/>
    <path fill="url(#p)" fill-rule="evenodd" d="M1110.2275 461.10361c-5.4381-.45961-10.9623-.39766-16.345-1.20125-3.8559-1.52829-8.5563-1.62941-11.4347-4.92184-3.0409-2.76807-6.5535-5.2029-8.4256-8.9741-3.8453-5.73637-7.3062-11.71198-10.2197-17.97574-3.0367-5.94098-5.8735-12.01938-9.3252-17.72495-3.0313-4.35765-6.1639-8.65514-10.0966-12.25338-2.6628-2.89999-6.5209-4.18288-9.8938-6.06113-3.3562-1.92217-7.0935-1.27941-10.7-.73803-3.9002.22884-6.9197 2.99528-10.2953 4.65361 2.3239-2.13628 8.0939-5.10632 8.2112-6.70874-5.069-.64871-10.1856-.81251-15.2723-1.29376.7373-4.97495 6.9073-2.28235 10.3609-3.22892 13.6997-.58691 27.4142-.0429 41.1214-.08882 1.8206-.33578 5.4308.07575 4.6588 2.33706-5.1231.98539-10.3517-.02831-15.5261-.0346-3.3894-1.12467-4.6139 1.06984-5.3098 4.07506 2.1676 4.0576 4.5383 8.01346 7.7581 11.33498 2.8931 3.23559 5.7531 6.54536 7.3546 10.63915 3.4887 7.54388 7.9153 14.57199 12.1607 21.69628 3.6856 6.23583 7.1 12.92828 12.9841 17.4139 3.7754 3.2205 8.2346 5.91883 13.2381 6.53848 4.9643 1.0369 10.0124 1.5899 14.9962 2.51674z" color="#000" display="block" style="marker:none"/>
    <path fill-rule="evenodd" stroke="#000" stroke-width=".25pt" d="M1040.4866 421.24774c-1.0779 1.46974-2.1557 2.93952-3.2335 4.4093-.7548 3.03041-.7129 6.18817-.4079 9.27563.0431 1.0286.1649 2.08997.7 2.99213.5885 1.39786 1.177 2.79574 1.7656 4.19358 1.0371-2.39407 1.6033-5.08238 3.4022-7.06752 1.4724-1.92818 2.9198-3.91499 3.8639-6.16503.6322-.63969 1.0889-1.85085.2961-2.54849-.732-.52359-1.2868-1.26786-1.9742-1.8543-1.2259-1.18492-2.6332-2.1555-4.0958-3.02257l-.1587-.10561-.1577-.10712zm10.5823 18.22507-3.8214 5.5851 5.5851-.88186-.5879-2.35162-1.1758-2.35162zm2.9395 12.9339c-.9799.098-1.9597.19598-2.9396.29397-.788.70274-1.6025 1.37583-2.374 2.09708-.4058.89167-1.3177 1.70398-1.0611 2.77322-.1039 1.03663.6868 1.90219 1.5328 2.3753.824.80912.2731 2.03455.4691 3.03533-.0027 1.01139.5178 2.10301-.0753 3.02578-.4668 1.03791-1.032 2.04864-1.8144 2.8838-.332 1.07976-.1351 2.32715.4855 3.26346.7353.92904 1.9366 1.33564 3.0923 1.32175.8873-.0881 2.1946.551 2.7913-.31737.1692-.93307.336-1.87237.4812-2.81375.1999-.81619-.0442-1.75699-.9279-2.01703-.6175-.24228-1.3136-.66853-1.2793-1.42274-.269-1.89012-.4936-3.78611-.7321-5.6802.3555-.89073.1831-2.07602 1.0579-2.69273 1.0401-.24 1.6364-1.47312 1.2642-2.45415.0756-.84365.2436-1.95591-.5936-2.48872-.6043-.018-1.282-1.21154-.2698-1.03373.2983-.04543.5945-.10389.8928-.14927zm0 28.80736-4.7032-.29395-4.1153.5879-.294.29396.5879 1.17581 2.6456 3.23348 1.7637 3.23347.5879.29396.8819-3.52743.5879-2.64558 2.0576-2.35162zm-6.7609 18.51901-2.3516-4.40928-2.3516-2.64558-1.1758-2.35162-1.4698-2.35162-1.4698 4.40929-1.1758 4.11534.5879 3.52743 1.4698 2.35162 2.3516 2.64557 2.9396-1.17581 1.7637-1.76371.8818-2.35163zm-23.2222-.29396c.1679-2.27781.3689-4.56152.292-6.84616.1989-.86811.6772-1.6459 1.0081-2.469.579-1.20784 1.6907-2.07595 2.1789-3.3406.2858-.72226.4197-1.51966.9446-2.12688 1.1335-1.39537 2.155-2.87612 3.2191-4.32427-3.2562 2.34743-6.5719 4.61631-9.7263 7.10161-.5752.83366-1.6696 1.47359-1.7822 2.509-.1488 1.6035-.3413 3.21527-.2195 4.8275 1.3618 1.55623 2.7236 3.11258 4.0853 4.6688zm-12.0335-41.85575c-.1877 2.76286-.4439 5.522-.5861 8.28736.0255 1.71308-.097 3.4363.1508 5.13846.0962.36705.0085 1.09029.2241 1.22589.8543-.47456 1.7086-.94924 2.5629-1.42383.0203-2.70047-.0814-5.40628.1596-8.1003.1031-1.44744.1647-2.90384.1371-4.35161-.2148-.4741-.8845-.2786-1.305-.47742-.4478-.09951-.8957-.19905-1.3434-.29855z" color="#000" display="block" style="marker:none"/>
    <path fill="#ff2e25" fill-rule="evenodd" stroke="#000" stroke-width=".25pt" d="M1017.5583 458.87368v6.173l-.5879 5.29115 4.7033-2.05767 2.9395-1.46976.2939-4.40929-7.3488-3.52743z" color="#000" display="block" style="marker:none"/>
    <path fill-rule="evenodd" stroke="#000" stroke-width=".25pt" d="M1023.1434 430.94818c-1.2738 1.56776-2.5476 3.1355-3.8214 4.70325l.294 4.99719c1.0778 1.07788 2.1557 2.15561 3.2335 3.23346 1.833.66843 3.6143 1.54819 5.5668 1.81887.3462-.00415 1.5643.51381.9369-.07352-1.286-1.56165-2.5721-3.12324-3.8582-4.68486-.3781-2.39355-.9343-4.75419-1.5926-7.08502-.253-.96978-.5059-1.93965-.759-2.90937zm12.5754 82.9823c-1.1658-5.15199-3.407-10.01929-4.4509-15.18761-.3862-3.76795.1838-7.58834 1.7675-11.03821.3356-2.70969 2.4219-4.46194 4.4994-5.98215 1.6402-1.75563 2.7133.96764.4867 1.28668-2.0983 1.69044-2.4959 4.58878-3.7535 6.84849-.8004 2.88963-2.9315 5.77941-2.0524 8.86921.984 2.82293 1.6267 5.76225 3.1603 8.36873.3004 2.60588 3.1712 3.5475 4.4986 1.0288 1.7223-1.66527 4.4894-1.57668 5.6571-4.10001.9305-.72374 2.6248-3.00554 1.1019-.664-1.5644 1.86712-3.142 3.71087-4.5689 5.64206-2.2911 1.41374-4.3866 3.08029-6.3458 4.92801zm6.4894-32.16504.8464 4.5144 3.1037 5.07869 2.5393 3.95009.5643 2.2572 1.6929-3.10365 2.8215-8.18233-3.1036 5.64299h-1.4108l-2.2572-3.66795-2.5393-3.10364-2.2572-3.3858zm-25.1113 3.9501 4.5144-3.3858 1.975-.84645 2.8215-.84644 2.2572-1.1286.8464-.84645-.8464-.5643-3.9501 1.41075-3.3858 1.6929-1.6929 1.69289-2.5393 2.8215z" color="#000" display="block" style="marker:none"/>
    <path fill-rule="evenodd" stroke="#000" stroke-width=".25pt" d="M1030.0757 451.2933c-.5085 1.12075-1.9235 2.08811-2.889.89781-2.8741-1.63742-5.6907-3.4032-8.2976-5.44236-1.7298-1.42496-3.564-2.86207-4.7025-4.82749-1.0743-2.52743-1.4068-5.27353-1.9338-7.94617-.033-1.24277-1.1594-2.46687-.6124-3.66886 1.0063-1.14678 2.8257-.44894 3.3598.82697.8687 1.5541 2.7456 2.46343 4.4993 2.05558 1.4951-.08411-.2204 1.46932-.9278 1.27147-1.3232-.21635-2.4931-.94608-3.7236-1.44988-1.4213-.74558-.7159 1.45336-.8501 2.25102.1012 1.89478.2051 3.82095.6875 5.66001.6094 1.30041 1.5162 2.47631 2.5783 3.44196 2.9835 2.56045 7.1576 3.05907 10.1605 5.58768.8216.55798 1.7121 1.0178 2.6514 1.34226zm6.4895-34.98654c-.7391 2.76909-1.3445 5.59282-2.5458 8.21076-.714 1.94513-1.6198 3.8534-2.0158 5.89267-.2267 1.91241-.2736 3.84592-.0367 5.75766-.2443 1.28553.5345 2.28427 1.3487 3.16322 1.6411 2.01937 3.1589 4.1615 4.2186 6.54769.2717.79006 1.1868 2.08865.764 2.65424-1.3769.10857-1.4415-1.67222-1.9398-2.58088-1.0015-2.41061-2.7881-4.36247-4.2757-6.47369-1.0642-.93409-.9992-2.3075-1.146-3.60855-.2485-2.7131-.872-5.45886-.4403-8.1818.9113-3.04886 2.5626-5.79831 3.8035-8.71419.1956-1.26997 1.166-2.13221 2.2653-2.66713zm-7.0538 10.43952c-.3762 1.1286-.7523 2.25721-1.1285 3.3858-.43.33989-.8624.92031-1.479.78626-.6661-.38728-.9876-1.19345-1.0793-1.93114-.0716-.71563.0604-1.43041.0218-2.14834.0041-1.35882-.0077-2.7176-.0101-4.07641-.2749-1.31764-.5784-2.6293-.8354-3.95066.1545-1.21494.195-2.45595.5605-3.63363.8505.76446 1.7179 1.5101 2.5578 2.28632.6526 1.02453 1.3043 2.0497 1.9565 3.07452-.4426.63402-1.2745.09641-1.6235-.36407-.2972-.54937-1.4799-.64698-1.3546.19185-.1471 1.76597-.132 3.53982-.1552 5.30949-.0621.95317-.3332 1.94169-.0711 2.88052.3857.65769 1.2158.08669 1.451-.41827.3262-.51114.8081-.91833 1.1891-1.39224z" color="#000" display="block" style="marker:none"/>
    <path fill="#eeeff6" fill-rule="evenodd" stroke="#000" stroke-width=".21589465" d="m857.98415 454.88861-2.27984 3.92714 3.33207-.62009-.35075-1.65352-.70148-1.65353zm1.7537 9.0944-1.7537.20669-1.40296 1.44683-.70148 1.44685.17534 1.44683 1.05222 1.03345v1.65354l.1754 1.8602-.70148 1.65354-.70148 1.03346.17534 1.86022 1.05222 1.03346 1.57836.20669h1.05222l.35074-2.06692v-1.24015l-1.22755-.82676-.17541-1.24014-.35075-3.30706.35075-1.65353 1.05222-.82676v-2.48029l-1.05222-1.03346 1.05222-.20669z"/>
    <path fill="#eeeff6" fill-rule="evenodd" stroke="#000" stroke-width=".21589465" d="m850.17289 508.23504 3.36661-3.96783 3.87162-6.34854 2.52492-10.11798.84168-8.13406v-6.94372l-.50502-8.33245-1.34664-10.31637-2.01996-9.32442-2.52493-4.16622-3.3666-3.76944-4.37658-.79357-3.70327-.19839-4.54488 3.76945-3.36661 5.95174-1.85165 4.9598-1.68331 7.93567-1.00998 7.1421v7.1421l.67332 11.90351.84168 6.15015 2.01997 6.94371 2.86158 6.15015 3.19829 3.17426 1.51495 1.78552 2.52498.59518h2.69322l3.36661-1.19035z"/>
    <path fill-rule="evenodd" stroke="#000" stroke-width=".21589465" d="m851.67077 442.07376-1.92911 3.10037-.35073 2.27359v2.27361l.17539 3.10036 1.40297 3.92714 1.22762-3.72044 2.10444-3.30706 1.57836-3.51375-2.1045-2.48029-2.10444-1.65353zm6.31338 12.81485-2.27984 3.92714 3.33207-.62009-.35075-1.65352-.70148-1.65353zm1.7537 9.0944-1.7537.20669-1.40296 1.44683-.70148 1.44685.17534 1.44683 1.05222 1.03345v1.65354l.1754 1.8602-.70148 1.65354-.70148 1.03346.17534 1.86022 1.05222 1.03346 1.57836.20669h1.05222l.35074-2.06692v-1.24015l-1.22755-.82676-.17541-1.24014-.35075-3.30706.35075-1.65353 1.05222-.82676v-2.48029l-1.05222-1.03346 1.05222-.20669zm0 20.25572-2.80592-.20669-2.45518.41338-.1754.2067.35074.82676 1.57836 2.27359 1.05222 2.2736.35074.2067.52613-2.4803.35075-1.86022 1.22756-1.65352zm-4.03354 13.02153-1.40296-3.10036-1.40296-1.86023-.70148-1.65353-.87688-1.65352-.87688 3.10037-.70149 2.89368.35075 2.48029.87688 1.65352 1.40296 1.86022 1.75376-.82677 1.05222-1.24013.52608-1.65354zm-13.85433-.2067.17534-2.89366v-2.06691l.70149-1.86022 1.05222-1.65353.52614-1.65352.70148-1.03347 1.40295-2.27359-3.68279 3.10036-2.10444 1.86022-1.05222 1.44683-.1754 2.2736v1.44685l2.45523 3.30704zm-5.78729-29.55681-.35074 5.58065v2.89369l.1754 1.86022 1.57835-1.03346v-3.92712l.17534-3.30707v-1.65352l-1.57835-.41339zm1.9291 1.03346v4.34052l-.35075 3.72043 2.80599-1.44684 1.7537-1.03344.17534-3.10037-4.38428-2.4803zm3.33206-19.63564-2.27984 3.30704.1754 3.51376 1.9291 2.27359 2.27978 1.03346 1.75375.41339-2.45523-3.51374-.35074-2.27361-1.05222-4.75389z" color="#000" display="block" style="marker:none"/>
    <path fill-rule="evenodd" stroke="#000" stroke-width=".21589465" d="m848.82625 507.24308-.84162-3.57105-.67333-2.38071-.67331-2.38069-.50503-2.1823v-3.37268l.33667-2.1823.84167-2.57909.33666-1.58714 1.17829-1.38874 1.68329-1.58712.67333.59516-1.6833 1.58714-1.85161 4.95979-1.17833 4.16623.50502 1.98391.67331 2.7775.84163 1.98391.67332 1.78553 1.00998.59517 1.17835-1.38875 1.00997-.99195.50496.39678.84169-.99196 1.6833-1.98391.50495-.79357-.84161 1.58713-1.68331 2.18231-.50502 1.19035-1.17828.79357-1.34663 1.19035-1.51501 1.58713zm3.87162-22.61666.50497 3.17427 1.85166 3.57106 1.51494 2.77748.33666 1.58713 1.00998-2.18231 1.68329-5.75336-1.8516 3.96784h-.84167l-1.34664-2.5791-1.51495-2.18231-1.34664-2.3807zm-14.98135 2.77749 2.69328-2.38071 1.17828-.59517 1.6833-.59517 1.34665-.79357.50496-.59518-.50496-.39678-2.35662.99196-2.01997 1.19035-1.00998 1.19035-1.51494 1.98392zm7.74312-24.20379-.84161 1.19034-1.8516-1.19034-3.36661-2.57909-2.18832-2.18232-1.17828-1.58714-.67333-2.3807-.50502-3.37266-.50495-2.18231.1683-.79356h1.34664l1.17834 1.78552 1.00998.59518h1.68329l-1.00997.99195-1.6833-.79355-1.17834-.59518v2.3807l.33666 3.37266 1.00998 1.78553s1.00997 1.19035 1.6833 1.58713c.67332.39678 2.18832 1.19035 2.18832 1.19035l1.8516.99195 1.34664 1.19036 1.17828.59518zm3.87163-24.60059-.84168 3.76946-1.00998 2.97586-.84162 2.77749-.16836 2.3807.16836 3.17427 1.34664 1.98391 1.17828 1.98393 1.00998 2.3807.33665 1.19035h-.67331l-1.00998-2.77749-1.17829-1.98391-1.515-2.38071-.33666-3.57105-.16829-1.58714v-1.98392l.50495-1.78551 1.00998-2.5791.67333-1.58713.50502-1.58713 1.00998-.79358zm-4.20828 7.3405-.67327 2.3807-.84168.79357-.67332-1.19034v-4.76142l-.50496-2.77748.1683-1.78553.16837-.79357 1.51493 1.58715 1.17828 2.1823-.1683.39678-1.51493-1.19035-.16837 1.78553v2.5791l-.16829 1.58713.33666.99196 1.34658-1.78553z" color="#000" display="block" style="marker:none"/>
    <path fill="url(#q)" fill-rule="evenodd" d="m1332.1333 478.38593 3.7385-.24923 1.9938-1.24615 1.7446-.99692-.7476-1.99384v-1.99384l1.7446-4.48614v-2.49229l-3.9877-.49846-3.4892 3.98767-18.6923 2.99076-32.3998 2.74153-50.3445 5.23382-36.886 3.23999-13.7076.74769-4.7354-.99692h-2.7415l-.9969 1.74461.2492 2.99076-1.4954 3.73845s-.2492 1.7446.7477 1.7446 3.4892.99692 3.4892.99692h2.7416l16.6983-.99692h4.7354l4.4862-.24923 6.4799-.74768 50.5937-6.47998 20.4368-2.24307 23.9261-1.99384 17.4461-.74769 8.9722-1.7446z" color="#000" display="block" style="marker:none"/>
    <rect width="15.244036" height="10.308916" x="-458.27911" y="1036.557" fill="url(#r)" fill-rule="evenodd" color="#000" display="block" rx="7.6220179" ry="4.0771332" style="marker:none" transform="rotate(-89.118)"/>
    <path fill="url(#s)" fill-rule="evenodd" stroke="#000" stroke-width=".25pt" d="M1034.9268 465.89749a1.3892878 5.0014362 0 1 1-2.7786 0 1.3892878 5.0014362 0 1 1 2.7786 0z" color="#000" display="block" style="marker:none" transform="matrix(2.08511 0 0 1.38318 -1122.408 -177.7837)"/>
    <rect width="10.54598" height="7.131814" x="-465.14636" y="853.46967" fill="url(#t)" fill-rule="evenodd" color="#000" display="block" rx="5.2729902" ry="2.8206024" style="marker:none" transform="rotate(-89.118)"/>
    <path fill="url(#u)" fill-rule="evenodd" stroke="#000" stroke-width=".25pt" d="M1034.9268 465.89749a1.3892878 5.0014362 0 1 1-2.7786 0 1.3892878 5.0014362 0 1 1 2.7786 0z" color="#000" display="block" style="marker:none" transform="matrix(1.4425 0 0 .9569 -642.4198 27.19324)"/>
  </g>
</svg>